<?xml version="1.0" encoding="iso-8859-1"?>
<!-- Uploaded to: SVG Repo, www.svgrepo.com, Generator: SVG Repo Mixer Tools -->
<!DOCTYPE svg PUBLIC "-//W3C//DTD SVG 1.1//EN" "http://www.w3.org/Graphics/SVG/1.1/DTD/svg11.dtd">
<svg fill="#000000" version="1.1" id="Capa_1" xmlns="http://www.w3.org/2000/svg" xmlns:xlink="http://www.w3.org/1999/xlink" 
	 width="800px" height="800px" viewBox="0 0 115.527 115.528"
	 xml:space="preserve">
<g>
	<path d="M62.057,1.9c-2.084-2.529-6.487-2.543-8.6,0.017c-3.773,4.627-36.884,45.882-36.884,68.826
		c0,24.693,18.477,44.785,41.187,44.785c22.717,0,41.194-20.092,41.194-44.785C98.954,47.799,65.841,6.544,62.057,1.9z
		 M57.76,108.121c-18.624,0-33.783-16.764-33.783-37.378c0-15.959,21.336-46.771,33.783-62.371
		c12.468,15.616,33.788,46.416,33.788,62.371C91.548,91.357,76.389,108.121,57.76,108.121z"/>
</g>
</svg>